<mxfile host="65bd71144e">
    <diagram id="rtPn0F6jkh-t7dfAMJCA" name="Page-1">
        <mxGraphModel dx="615" dy="483" grid="0" gridSize="10" guides="1" tooltips="1" connect="1" arrows="1" fold="1" page="1" pageScale="1" pageWidth="827" pageHeight="1169" background="#ffffff" math="0" shadow="0">
            <root>
                <mxCell id="0"/>
                <mxCell id="1" parent="0"/>
                <mxCell id="2" value="" style="shape=umlLifeline;participant=umlActor;perimeter=lifelinePerimeter;whiteSpace=wrap;html=1;container=1;collapsible=0;recursiveResize=0;verticalAlign=top;spacingTop=36;outlineConnect=0;strokeColor=#000000;" vertex="1" parent="1">
                    <mxGeometry x="41" y="79" width="20" height="433" as="geometry"/>
                </mxCell>
                <mxCell id="3" value="" style="rounded=0;whiteSpace=wrap;html=1;fillColor=none;strokeColor=#000000;" vertex="1" parent="1">
                    <mxGeometry x="105" y="77" width="120" height="60" as="geometry"/>
                </mxCell>
                <mxCell id="4" value="" style="endArrow=none;dashed=1;html=1;dashPattern=1 3;strokeWidth=2;entryX=0.5;entryY=1;entryDx=0;entryDy=0;strokeColor=#000000;" edge="1" parent="1" target="3">
                    <mxGeometry width="50" height="50" relative="1" as="geometry">
                        <mxPoint x="163" y="515" as="sourcePoint"/>
                        <mxPoint x="183" y="272" as="targetPoint"/>
                    </mxGeometry>
                </mxCell>
                <mxCell id="5" value="&lt;font color=&quot;#050505&quot;&gt;PlanetService.js&lt;/font&gt;" style="rounded=0;whiteSpace=wrap;html=1;fillColor=none;strokeColor=#000000;" vertex="1" parent="1">
                    <mxGeometry x="277" y="77" width="120" height="60" as="geometry"/>
                </mxCell>
                <mxCell id="6" value="" style="endArrow=none;dashed=1;html=1;dashPattern=1 3;strokeWidth=2;entryX=0.5;entryY=1;entryDx=0;entryDy=0;strokeColor=#000000;" edge="1" parent="1" target="5">
                    <mxGeometry width="50" height="50" relative="1" as="geometry">
                        <mxPoint x="335" y="515" as="sourcePoint"/>
                        <mxPoint x="355" y="272" as="targetPoint"/>
                    </mxGeometry>
                </mxCell>
                <mxCell id="7" value="" style="rounded=0;whiteSpace=wrap;html=1;fillColor=none;strokeColor=#000000;" vertex="1" parent="1">
                    <mxGeometry x="449" y="77" width="120" height="60" as="geometry"/>
                </mxCell>
                <mxCell id="8" value="" style="endArrow=none;dashed=1;html=1;dashPattern=1 3;strokeWidth=2;entryX=0.5;entryY=1;entryDx=0;entryDy=0;strokeColor=#000000;" edge="1" parent="1" target="7">
                    <mxGeometry width="50" height="50" relative="1" as="geometry">
                        <mxPoint x="507" y="515" as="sourcePoint"/>
                        <mxPoint x="527" y="272" as="targetPoint"/>
                    </mxGeometry>
                </mxCell>
                <mxCell id="9" value="User" style="text;html=1;strokeColor=none;fillColor=none;align=center;verticalAlign=middle;whiteSpace=wrap;rounded=0;labelBackgroundColor=none;fontColor=none;" vertex="1" parent="1">
                    <mxGeometry x="21" y="42" width="60" height="30" as="geometry"/>
                </mxCell>
                <mxCell id="12" value="database/NASA API" style="text;html=1;strokeColor=none;fillColor=none;align=center;verticalAlign=middle;whiteSpace=wrap;rounded=0;labelBackgroundColor=none;fontColor=none;" vertex="1" parent="1">
                    <mxGeometry x="476" y="92" width="60" height="30" as="geometry"/>
                </mxCell>
                <mxCell id="13" value="Clicks to view PlanetDetail" style="text;html=1;strokeColor=none;fillColor=none;align=center;verticalAlign=middle;whiteSpace=wrap;rounded=0;labelBackgroundColor=none;fontColor=none;" vertex="1" parent="1">
                    <mxGeometry x="54" y="168" width="104" height="30" as="geometry"/>
                </mxCell>
                <mxCell id="14" value="" style="endArrow=classic;html=1;strokeWidth=2;strokeColor=#000000;fontColor=none;endFill=1;" edge="1" parent="1" source="2">
                    <mxGeometry width="50" height="50" relative="1" as="geometry">
                        <mxPoint x="318" y="331" as="sourcePoint"/>
                        <mxPoint x="163" y="200" as="targetPoint"/>
                    </mxGeometry>
                </mxCell>
                <mxCell id="15" value="PlanetDetail" style="text;html=1;strokeColor=none;fillColor=none;align=center;verticalAlign=middle;whiteSpace=wrap;rounded=0;labelBackgroundColor=none;fontColor=none;" vertex="1" parent="1">
                    <mxGeometry x="135" y="92" width="60" height="30" as="geometry"/>
                </mxCell>
                <mxCell id="16" value="getOnePlanet(planetId)" style="text;html=1;strokeColor=none;fillColor=none;align=center;verticalAlign=middle;whiteSpace=wrap;rounded=0;labelBackgroundColor=none;fontColor=none;" vertex="1" parent="1">
                    <mxGeometry x="198.5" y="218" width="104" height="30" as="geometry"/>
                </mxCell>
                <mxCell id="17" value="" style="endArrow=classic;html=1;strokeWidth=2;strokeColor=#000000;fontColor=none;endFill=1;" edge="1" parent="1">
                    <mxGeometry width="50" height="50" relative="1" as="geometry">
                        <mxPoint x="163.63" y="247.9999999999999" as="sourcePoint"/>
                        <mxPoint x="337.38" y="247.9999999999999" as="targetPoint"/>
                    </mxGeometry>
                </mxCell>
                <mxCell id="19" value="" style="endArrow=classic;html=1;strokeWidth=2;strokeColor=#000000;fontColor=none;endFill=1;" edge="1" parent="1">
                    <mxGeometry width="50" height="50" relative="1" as="geometry">
                        <mxPoint x="337" y="372" as="sourcePoint"/>
                        <mxPoint x="511" y="372" as="targetPoint"/>
                    </mxGeometry>
                </mxCell>
                <mxCell id="20" value="getImageNASA(onePlanet.Planet)" style="text;html=1;strokeColor=none;fillColor=none;align=center;verticalAlign=middle;whiteSpace=wrap;rounded=0;labelBackgroundColor=none;fontColor=none;fontSize=10;" vertex="1" parent="1">
                    <mxGeometry x="177" y="281" width="135" height="48" as="geometry"/>
                </mxCell>
                <mxCell id="21" value="" style="endArrow=none;html=1;strokeWidth=2;strokeColor=#000000;fontColor=none;endFill=0;startArrow=block;startFill=1;dashed=1;dashPattern=1 1;" edge="1" parent="1">
                    <mxGeometry width="50" height="50" relative="1" as="geometry">
                        <mxPoint x="337" y="390" as="sourcePoint"/>
                        <mxPoint x="505" y="390" as="targetPoint"/>
                    </mxGeometry>
                </mxCell>
                <mxCell id="22" value="return&amp;nbsp;" style="text;html=1;strokeColor=none;fillColor=none;align=center;verticalAlign=middle;whiteSpace=wrap;rounded=0;labelBackgroundColor=none;fontColor=none;dashed=1;" vertex="1" parent="1">
                    <mxGeometry x="367" y="386" width="124" height="30" as="geometry"/>
                </mxCell>
                <mxCell id="23" value="" style="endArrow=none;html=1;strokeWidth=2;strokeColor=#000000;fontColor=none;endFill=0;startArrow=block;startFill=1;dashed=1;dashPattern=1 1;" edge="1" parent="1">
                    <mxGeometry width="50" height="50" relative="1" as="geometry">
                        <mxPoint x="161" y="263" as="sourcePoint"/>
                        <mxPoint x="334.75" y="263" as="targetPoint"/>
                    </mxGeometry>
                </mxCell>
                <mxCell id="24" value="return planet data" style="text;html=1;strokeColor=none;fillColor=none;align=center;verticalAlign=middle;whiteSpace=wrap;rounded=0;labelBackgroundColor=none;fontColor=none;" vertex="1" parent="1">
                    <mxGeometry x="191" y="259" width="124" height="29" as="geometry"/>
                </mxCell>
                <mxCell id="25" value="" style="endArrow=none;html=1;strokeWidth=2;strokeColor=#000000;fontColor=none;endFill=0;startArrow=block;startFill=1;dashed=1;dashPattern=1 1;" edge="1" parent="1">
                    <mxGeometry width="50" height="50" relative="1" as="geometry">
                        <mxPoint x="49.999999999999886" y="422" as="sourcePoint"/>
                        <mxPoint x="162" y="420" as="targetPoint"/>
                    </mxGeometry>
                </mxCell>
                <mxCell id="26" value="render planet details" style="text;html=1;strokeColor=none;fillColor=none;align=center;verticalAlign=middle;whiteSpace=wrap;rounded=0;labelBackgroundColor=none;fontColor=none;" vertex="1" parent="1">
                    <mxGeometry x="64" y="424" width="84" height="29" as="geometry"/>
                </mxCell>
                <mxCell id="27" value="retrieve planet data" style="text;html=1;strokeColor=none;fillColor=none;align=center;verticalAlign=middle;whiteSpace=wrap;rounded=0;labelBackgroundColor=none;fontColor=none;dashed=1;" vertex="1" parent="1">
                    <mxGeometry x="354" y="348" width="124" height="30" as="geometry"/>
                </mxCell>
                <mxCell id="30" value="" style="endArrow=classic;html=1;strokeWidth=2;strokeColor=#000000;fontColor=none;endFill=1;" edge="1" parent="1">
                    <mxGeometry width="50" height="50" relative="1" as="geometry">
                        <mxPoint x="163.63" y="317.9999999999999" as="sourcePoint"/>
                        <mxPoint x="337.38" y="317.9999999999999" as="targetPoint"/>
                    </mxGeometry>
                </mxCell>
                <mxCell id="33" value="" style="endArrow=none;html=1;strokeWidth=2;strokeColor=#000000;fontColor=none;endFill=0;startArrow=block;startFill=1;dashed=1;dashPattern=1 1;" edge="1" parent="1">
                    <mxGeometry width="50" height="50" relative="1" as="geometry">
                        <mxPoint x="160" y="332" as="sourcePoint"/>
                        <mxPoint x="333.75" y="332" as="targetPoint"/>
                    </mxGeometry>
                </mxCell>
                <mxCell id="34" value="return planet images" style="text;html=1;strokeColor=none;fillColor=none;align=center;verticalAlign=middle;whiteSpace=wrap;rounded=0;labelBackgroundColor=none;fontColor=none;" vertex="1" parent="1">
                    <mxGeometry x="186" y="329" width="124" height="29" as="geometry"/>
                </mxCell>
            </root>
        </mxGraphModel>
    </diagram>
</mxfile>